<?xml version="1.0" standalone="no"?>
<!DOCTYPE svg PUBLIC "-//W3C//DTD SVG 20010904//EN"
 "http://www.w3.org/TR/2001/REC-SVG-20010904/DTD/svg10.dtd">
<svg version="1.0" xmlns="http://www.w3.org/2000/svg"
 width="139.000000pt" height="117.000000pt" viewBox="0 0 139.000000 117.000000"
 preserveAspectRatio="xMidYMid meet">

<g transform="translate(0.000000,117.000000) scale(0.100000,-0.100000)"
fill="#000000" stroke="none">
<path d="M376 898 c-9 -12 -16 -37 -16 -55 0 -30 3 -33 30 -33 25 0 30 4 30
25 l0 25 345 0 345 0 0 -45 0 -45 -430 0 c-417 0 -431 -1 -450 -20 -19 -19
-20 -33 -20 -244 l0 -225 26 -20 c19 -15 41 -21 75 -21 l49 0 0 -55 c0 -42 5
-60 20 -75 19 -19 33 -20 385 -20 430 0 405 -7 405 109 0 63 -2 71 -26 90 -26
21 -37 21 -450 21 l-424 0 0 195 0 195 45 0 45 0 0 -41 c0 -35 7 -47 51 -95
l52 -54 -52 -54 c-62 -66 -70 -106 -21 -106 17 0 30 5 30 12 0 7 19 31 42 55
l41 42 34 -29 34 -30 212 0 c166 0 217 3 232 14 30 22 34 142 7 176 -20 25
-20 25 -229 28 -197 3 -211 2 -234 -17 -22 -18 -23 -21 -7 -37 14 -14 41 -16
217 -15 l201 2 0 -45 0 -46 -187 0 -188 0 -87 94 c-63 67 -88 102 -88 120 l0
25 356 3 356 3 19 24 c24 30 27 136 3 169 l-15 22 -374 0 -374 0 -15 -22z
m732 -700 l-3 -43 -340 0 -340 0 -3 43 -3 42 346 0 346 0 -3 -42z"/>
</g>
</svg>
